<svg width="140" height="56" viewBox="0 0 140 56" fill="none" xmlns="http://www.w3.org/2000/svg">
<g clip-path="url(#clip0)">
<path fill-rule="evenodd" clip-rule="evenodd" d="M0.246094 44.6969H139.737V0.42852H0.246094V44.6969Z" stroke="#000000" stroke-width="0.281385"/>
<path fill-rule="evenodd" clip-rule="evenodd" d="M56.8076 15.9144C56.7554 16.2642 56.6718 16.6657 56.3792 16.7275C56.2225 16.7583 56.1494 16.7583 56.0658 16.7583C55.9609 16.7583 55.8984 16.7791 55.8984 16.8305C55.8984 16.9231 55.9821 16.944 56.0864 16.944C56.421 16.944 56.9225 16.9129 57.121 16.9129C57.309 16.9129 57.7792 16.944 58.2182 16.944C58.3746 16.944 58.4689 16.9231 58.4689 16.8305C58.4689 16.7791 58.3956 16.7583 58.3121 16.7583C58.2076 16.7583 58.0614 16.7483 57.8734 16.7071C57.6956 16.6657 57.5597 16.5733 57.5597 16.3777C57.5597 16.2131 57.5703 16.0792 57.5912 15.8935L58.1345 11.7963H58.1763C58.5422 12.5687 59.1689 13.8654 59.2631 14.0819C59.3883 14.3704 60.2138 15.9454 60.4646 16.4189C60.6319 16.7275 60.7362 16.9333 60.8304 16.9333C60.9244 16.9333 60.9766 16.8409 61.217 16.3568L63.4946 11.6831H63.5367L64.1634 16.2131C64.2052 16.5013 64.1739 16.6351 64.1112 16.6555C64.0379 16.6865 63.9963 16.7173 63.9963 16.7687C63.9963 16.8305 64.059 16.8613 64.2994 16.8821C64.7172 16.9129 66.1593 16.944 66.4203 16.944C66.5667 16.944 66.6922 16.9129 66.6922 16.8305C66.6922 16.7687 66.6189 16.7583 66.5247 16.7583C66.3891 16.7583 66.1799 16.7483 65.8773 16.6555C65.5636 16.5631 65.459 16.2642 65.365 15.6157L64.4143 9.25354C64.3826 9.03705 64.3201 8.93427 64.2261 8.93427C64.1321 8.93427 64.0694 9.01669 63.9963 9.18154L61.1542 15.0601L58.3016 9.25354C58.1657 8.9859 58.103 8.93427 58.0198 8.93427C57.9362 8.93427 57.8734 9.02687 57.842 9.20239L56.8076 15.9144Z" fill="#000000"/>
<path fill-rule="evenodd" clip-rule="evenodd" d="M68.4263 13.9583C68.4263 14.9568 68.4263 15.7704 68.3741 16.2029C68.3426 16.5015 68.2799 16.6763 68.071 16.7173C67.977 16.7381 67.8515 16.7585 67.6943 16.7585C67.5693 16.7585 67.5277 16.7893 67.5277 16.8412C67.5277 16.9129 67.6011 16.944 67.7366 16.944C68.1547 16.944 68.8128 16.9129 69.0532 16.9129C69.3354 16.9129 69.9934 16.944 70.6833 16.944C70.7984 16.944 70.8816 16.9129 70.8816 16.8412C70.8816 16.7893 70.8294 16.7585 70.7145 16.7585C70.5578 16.7585 70.3277 16.7381 70.1818 16.7173C69.8684 16.6763 69.795 16.4909 69.7638 16.2131C69.7217 15.7704 69.7217 14.9568 69.7217 13.9583V12.1466C69.7217 10.5818 69.7217 10.2933 69.7429 9.96384C69.7638 9.60336 69.847 9.42833 70.1294 9.37718C70.2549 9.35657 70.3383 9.34639 70.4426 9.34639C70.5475 9.34639 70.61 9.32554 70.61 9.24336C70.61 9.18154 70.5263 9.16069 70.3905 9.16069C69.9934 9.16069 69.3773 9.19172 69.116 9.19172C68.8128 9.19172 68.1547 9.16069 67.7573 9.16069C67.5905 9.16069 67.5068 9.18154 67.5068 9.24336C67.5068 9.32554 67.5693 9.34639 67.6736 9.34639C67.7994 9.34639 67.9352 9.35657 68.0503 9.38736C68.2799 9.43899 68.3845 9.61402 68.4054 9.96384C68.4263 10.2933 68.4263 10.5818 68.4263 12.1466V13.9583Z" fill="#000000"/>
<path fill-rule="evenodd" clip-rule="evenodd" d="M73.6953 11.2199H73.7275C73.9152 11.4155 75.0744 12.7026 76.2121 13.8143C77.2976 14.8747 78.6339 16.2233 79.2921 16.841C79.4067 16.9542 79.5327 17.0676 79.6474 17.0676C79.7411 17.0676 79.7824 16.9748 79.7824 16.7484L79.8981 10.2521C79.9079 9.67589 79.9916 9.4594 80.2844 9.37722C80.4101 9.34643 80.4933 9.34643 80.5976 9.34643C80.7231 9.34643 80.7858 9.3154 80.7858 9.25358C80.7858 9.1714 80.682 9.16073 80.5457 9.16073C80.0337 9.16073 79.6365 9.19176 79.5219 9.19176C79.3019 9.19176 78.8007 9.16073 78.2584 9.16073C78.1015 9.16073 77.987 9.1714 77.987 9.25358C77.987 9.3154 78.0279 9.34643 78.1534 9.34643C78.2995 9.34643 78.5507 9.34643 78.7065 9.40825C78.9579 9.51104 79.0519 9.70667 79.0618 10.3343L79.1666 14.9569H79.1137C78.9373 14.792 77.5277 13.3098 76.8181 12.6099C75.2928 11.1171 73.7061 9.43904 73.5796 9.30522C73.4012 9.11976 73.3068 8.98595 73.1911 8.98595C73.0856 8.98595 73.0541 9.12995 73.0541 9.33625L72.9601 15.4303C72.9502 16.3261 72.9077 16.6247 72.6363 16.7072C72.4901 16.7484 72.3019 16.7586 72.1661 16.7586C72.0615 16.7586 71.999 16.7792 71.999 16.841C71.999 16.9333 72.093 16.944 72.2288 16.944C72.7721 16.944 73.2647 16.913 73.3592 16.913C73.559 16.913 73.978 16.944 74.6563 16.944C74.8025 16.944 74.8967 16.9232 74.8967 16.841C74.8928 16.7792 74.8298 16.7586 74.7154 16.7586C74.5478 16.7586 74.3493 16.7484 74.1721 16.6866C73.963 16.6146 73.8267 16.3469 73.806 15.544L73.6953 11.2199Z" fill="#000000"/>
<path fill-rule="evenodd" clip-rule="evenodd" d="M83.1844 13.9583C83.1844 14.9568 83.1844 15.7704 83.1325 16.2029C83.1012 16.5015 83.0385 16.6763 82.8296 16.7173C82.7356 16.7381 82.6096 16.7585 82.4531 16.7585C82.3274 16.7585 82.2863 16.7893 82.2863 16.8412C82.2863 16.9129 82.3589 16.944 82.4952 16.944C82.913 16.944 83.5709 16.9129 83.8113 16.9129C84.0938 16.9129 84.7517 16.944 85.4411 16.944C85.557 16.944 85.6404 16.9129 85.6404 16.8412C85.6404 16.7893 85.5873 16.7585 85.4726 16.7585C85.3156 16.7585 85.0863 16.7381 84.9402 16.7173C84.6262 16.6763 84.5536 16.4909 84.5224 16.2131C84.48 15.7704 84.48 14.9568 84.48 13.9583V12.1466C84.48 10.5818 84.4801 10.2933 84.5007 9.96384C84.5224 9.60336 84.6055 9.42833 84.888 9.37718C85.0135 9.35657 85.0969 9.34639 85.201 9.34639C85.3058 9.34639 85.3685 9.32554 85.3685 9.24336C85.3685 9.18154 85.2854 9.16069 85.149 9.16069C84.7517 9.16069 84.1349 9.19172 83.874 9.19172C83.5709 9.19172 82.913 9.16069 82.5159 9.16069C82.349 9.16069 82.2646 9.18154 82.2646 9.24336C82.2646 9.32554 82.3274 9.34639 82.4325 9.34639C82.5579 9.34639 82.6933 9.35657 82.8079 9.38736C83.0385 9.43899 83.1425 9.61402 83.1637 9.96384C83.1844 10.2933 83.1844 10.5818 83.1844 12.1466V13.9583Z" fill="#000000"/>
<path fill-rule="evenodd" clip-rule="evenodd" d="M88.9301 17.088C89.4842 17.088 90.0686 16.9952 90.5914 16.6657C91.3436 16.1821 91.5741 15.472 91.5741 14.8747C91.5741 13.8965 91.114 13.207 89.8594 12.2495L89.5676 12.033C88.7003 11.3847 88.4604 11.0243 88.4604 10.5508C88.4604 9.93334 88.9301 9.49019 89.7039 9.49019C90.3823 9.49019 90.6854 9.79904 90.8424 9.99468C91.0621 10.2623 91.114 10.5818 91.114 10.6744C91.114 10.7981 91.1455 10.8594 91.2181 10.8594C91.3025 10.8594 91.3337 10.7775 91.3337 10.5508C91.3337 9.74789 91.3748 9.44922 91.3748 9.31541C91.3748 9.24341 91.3229 9.21262 91.2289 9.19177C90.9573 9.11977 90.5188 9.01674 89.8392 9.01674C88.3868 9.01674 87.4258 9.83007 87.4258 10.9624C87.4258 11.7964 87.8229 12.5171 88.9722 13.4022L89.4527 13.7733C90.3198 14.4318 90.4765 14.9159 90.4765 15.4201C90.4765 15.9661 90.0166 16.5937 89.0763 16.5937C88.4289 16.5937 87.8121 16.3159 87.5825 15.554C87.5296 15.3792 87.4885 15.1627 87.4885 15.0289C87.4885 14.9467 87.4777 14.8541 87.3835 14.8541C87.3003 14.8541 87.2688 14.9675 87.258 15.1217C87.2481 15.2863 87.2061 15.9038 87.2061 16.4706C87.2061 16.6972 87.2373 16.7484 87.4041 16.8204C87.8544 17.016 88.3241 17.088 88.9301 17.088Z" fill="#000000"/>
<path fill-rule="evenodd" clip-rule="evenodd" d="M95.519 13.9584C95.519 14.9058 95.519 15.7188 95.4671 16.1513C95.4356 16.4498 95.3731 16.6764 95.1639 16.7174C95.07 16.7382 94.9442 16.7586 94.7877 16.7586C94.6618 16.7586 94.6207 16.7894 94.6207 16.8413C94.6207 16.913 94.6933 16.9441 94.8298 16.9441C95.2476 16.9441 95.9055 16.913 96.1457 16.913C96.4382 16.913 97.0969 16.9441 97.7863 16.9441C97.901 16.9441 97.9846 16.913 97.9846 16.8413C97.9846 16.7894 97.9325 16.7586 97.8178 16.7586C97.6608 16.7586 97.4315 16.7382 97.2851 16.7174C96.9716 16.6764 96.9089 16.4498 96.8774 16.1615C96.8252 15.7188 96.8252 14.9058 96.8252 13.9584V9.73727L98.1416 9.76854C99.0712 9.78891 99.3534 10.0774 99.374 10.345L99.3849 10.458C99.3957 10.6127 99.4161 10.6643 99.4995 10.6643C99.5623 10.6643 99.5842 10.602 99.594 10.4992C99.594 10.2316 99.6253 9.52127 99.6253 9.30527C99.6253 9.15085 99.6147 9.08903 99.5418 9.08903C99.4584 9.08903 99.2077 9.19182 98.5387 9.19182H94.401C94.0558 9.19182 93.6589 9.17145 93.3555 9.14018C93.0949 9.11982 92.9899 9.01703 92.9065 9.01703C92.8437 9.01703 92.8122 9.07885 92.781 9.21266C92.7603 9.2946 92.5625 10.2316 92.5625 10.3962C92.5625 10.5099 92.5829 10.561 92.6558 10.561C92.719 10.561 92.7495 10.5201 92.7712 10.4379C92.7918 10.3552 92.8437 10.2316 92.9485 10.0774C93.1058 9.85073 93.3555 9.79909 93.9615 9.77873L95.519 9.73727V13.9584Z" fill="#000000"/>
<path fill-rule="evenodd" clip-rule="evenodd" d="M101.62 13.9583C101.62 14.9057 101.62 15.7188 101.567 16.1512C101.526 16.4497 101.473 16.6763 101.265 16.7173C101.171 16.7381 101.045 16.7585 100.888 16.7585C100.763 16.7585 100.721 16.7893 100.721 16.8412C100.721 16.9129 100.794 16.944 100.93 16.944C101.348 16.944 102.006 16.9129 102.204 16.9129C102.361 16.9129 103.135 16.944 103.741 16.944C103.876 16.944 103.95 16.9129 103.95 16.8412C103.95 16.7893 103.908 16.7585 103.824 16.7585C103.699 16.7585 103.469 16.7381 103.313 16.7173C102.999 16.6763 102.936 16.4497 102.904 16.1512C102.852 15.7188 102.852 14.9057 102.852 13.9481V13.8041C102.852 13.7423 102.884 13.7214 102.936 13.7214L103.845 13.7423C103.919 13.7423 103.981 13.7524 104.033 13.8143C104.17 13.9689 104.65 14.6688 105.068 15.2351C105.652 16.0276 106.05 16.5115 106.499 16.7483C106.77 16.8923 107.032 16.944 107.618 16.944H108.61C108.736 16.944 108.808 16.9231 108.808 16.8412C108.808 16.7893 108.766 16.7585 108.683 16.7585C108.599 16.7585 108.505 16.7483 108.39 16.7275C108.233 16.6972 107.805 16.6247 107.22 16.0276C106.604 15.3893 105.883 14.4732 104.953 13.32C106.008 12.4761 106.332 11.776 106.332 11.014C106.332 10.3241 105.914 9.79899 105.621 9.60336C105.057 9.22275 104.357 9.16069 103.699 9.16069C103.375 9.16069 102.581 9.19172 102.226 9.19172C102.006 9.19172 101.348 9.16069 100.794 9.16069C100.637 9.16069 100.564 9.18154 100.564 9.25354C100.564 9.32554 100.627 9.34639 100.742 9.34639C100.888 9.34639 101.066 9.35657 101.149 9.37718C101.494 9.44918 101.578 9.61402 101.599 9.96384C101.62 10.2933 101.62 10.5818 101.62 12.1466V13.9583ZM102.852 9.83002C102.852 9.74784 102.873 9.70663 102.947 9.68602C103.051 9.65499 103.239 9.64481 103.5 9.64481C104.117 9.64481 105.099 10.0671 105.099 11.5287C105.099 12.3731 104.796 12.8465 104.482 13.0732C104.294 13.207 104.159 13.248 103.741 13.248C103.479 13.248 103.166 13.2172 102.947 13.1452C102.873 13.1141 102.852 13.0732 102.852 12.9597V9.83002Z" fill="#000000"/>
<path fill-rule="evenodd" clip-rule="evenodd" d="M110.542 15.1217C110.542 15.2865 110.542 15.7188 110.51 16.151C110.489 16.4499 110.394 16.6761 110.186 16.7175C110.092 16.7381 109.967 16.7585 109.82 16.7585C109.705 16.7585 109.653 16.7893 109.653 16.8412C109.653 16.9234 109.737 16.9437 109.883 16.9437C110.27 16.9437 110.928 16.9132 111.189 16.9132C111.471 16.9132 112.129 16.9437 112.787 16.9437C112.924 16.9437 113.007 16.9132 113.007 16.8412C113.007 16.7893 112.955 16.7585 112.84 16.7585C112.693 16.7585 112.464 16.7381 112.318 16.7175C112.004 16.6761 111.91 16.4499 111.889 16.151C111.858 15.7188 111.858 15.2865 111.858 15.1217V14.2773C111.858 13.9374 111.858 13.6186 112.015 13.2482C112.203 12.8055 113.665 10.3861 114.01 9.97427C114.24 9.69621 114.356 9.57305 114.574 9.4693C114.731 9.38736 114.93 9.34639 115.034 9.34639C115.149 9.34639 115.233 9.31536 115.233 9.24336C115.233 9.1813 115.16 9.16069 115.045 9.16069C114.846 9.16069 114.156 9.19148 113.927 9.19148C113.624 9.19148 113.29 9.16069 112.944 9.16069C112.819 9.16069 112.767 9.1813 112.767 9.25354C112.767 9.31536 112.861 9.33621 112.955 9.35657C113.133 9.39754 113.174 9.51099 113.174 9.61402C113.174 9.74784 113.133 9.92287 113.028 10.1493C112.882 10.4681 111.565 12.7331 111.461 12.9803C111.294 12.6921 109.831 10.2111 109.684 9.90251C109.611 9.75802 109.559 9.63439 109.559 9.55221C109.559 9.4693 109.611 9.38736 109.705 9.36675C109.862 9.32554 109.936 9.31536 109.936 9.25354C109.936 9.19148 109.883 9.16069 109.778 9.16069C109.308 9.16069 108.88 9.19148 108.66 9.19148C108.315 9.19148 107.532 9.16069 107.344 9.16069C107.218 9.16069 107.146 9.19148 107.146 9.25354C107.146 9.32554 107.218 9.34639 107.302 9.34639C107.428 9.34639 107.605 9.40821 107.741 9.48021C107.94 9.59318 108.201 9.85087 108.462 10.2312C108.827 10.7668 110.228 13.0317 110.301 13.1961C110.437 13.495 110.542 13.7214 110.542 14.2773V15.1217Z" fill="#000000"/>
<path fill-rule="evenodd" clip-rule="evenodd" d="M122.721 17.088C125.374 17.088 127.046 15.2245 127.046 12.8669C127.046 10.5098 125.426 9.01674 122.826 9.01674C119.691 9.01674 118.51 11.2919 118.51 13.0524C118.51 14.8747 119.722 17.088 122.721 17.088ZM123.159 16.5733C121.154 16.5733 119.951 14.8747 119.951 12.7331C119.951 10.1702 121.32 9.51104 122.523 9.51104C124.236 9.51104 125.584 10.9421 125.584 13.248C125.584 16.2233 123.891 16.5733 123.159 16.5733Z" fill="#000000"/>
<path fill-rule="evenodd" clip-rule="evenodd" d="M130.617 13.1243C130.617 13.0523 130.638 13.0315 130.69 13.0315C130.867 13.0315 131.975 13.0315 132.237 13.063C132.56 13.104 132.717 13.2892 132.769 13.4332C132.811 13.5568 132.832 13.6805 132.832 13.7525C132.832 13.8245 132.853 13.8965 132.915 13.8965C133.02 13.8965 133.02 13.7934 133.02 13.7013C133.02 13.6288 133.041 13.1554 133.062 12.9496C133.093 12.63 133.146 12.3731 133.146 12.3113C133.146 12.2494 133.124 12.2184 133.083 12.2184C133.02 12.2184 132.999 12.2596 132.947 12.3214C132.843 12.4553 132.697 12.4962 132.498 12.5069C132.351 12.5171 132.205 12.5171 132.028 12.5171L130.69 12.5273C130.627 12.5273 130.617 12.4962 130.617 12.4344V9.86083C130.617 9.74786 130.648 9.71683 130.711 9.71683L132.32 9.74786C132.717 9.75804 132.936 9.91246 133.009 10.0565C133.072 10.2009 133.072 10.3653 133.072 10.4477C133.083 10.5609 133.104 10.6126 133.177 10.6126C133.25 10.6126 133.271 10.5508 133.281 10.4681C133.302 10.3449 133.323 9.73719 133.333 9.63416C133.364 9.36652 133.417 9.24337 133.417 9.17137C133.417 9.11974 133.386 9.07877 133.344 9.07877C133.292 9.07877 133.239 9.11974 133.177 9.1401C133.072 9.17137 132.947 9.17137 132.748 9.18155C132.508 9.19174 130.387 9.19174 129.99 9.19174C129.687 9.19174 129.029 9.1607 128.486 9.1607C128.329 9.1607 128.245 9.18155 128.245 9.26374C128.245 9.32555 128.318 9.3464 128.423 9.3464C128.569 9.3464 128.746 9.35634 128.83 9.37719C129.175 9.44919 129.258 9.61404 129.279 9.96386C129.3 10.2933 129.3 10.5818 129.3 12.1464V13.9583C129.3 14.9466 129.3 15.7188 129.248 16.1512C129.206 16.4497 129.154 16.6763 128.945 16.7173C128.851 16.7382 128.726 16.7585 128.569 16.7585C128.454 16.7585 128.412 16.7893 128.412 16.8409C128.412 16.9231 128.485 16.944 128.632 16.944C129.029 16.944 129.687 16.9129 129.959 16.9129C130.23 16.9129 130.888 16.944 131.547 16.944C131.703 16.944 131.777 16.9129 131.777 16.8409C131.777 16.7893 131.735 16.7585 131.599 16.7585C131.453 16.7585 131.223 16.7382 131.077 16.7173C130.763 16.6763 130.7 16.4497 130.669 16.1512C130.616 15.7188 130.617 14.9466 130.617 13.9583V13.1243Z" fill="#000000"/>
<path fill-rule="evenodd" clip-rule="evenodd" d="M59.9265 27.7588C59.8748 27.7588 59.8229 27.7248 59.8229 27.64V27.2834C59.8229 24.7011 59.8229 24.2257 59.8576 23.6822C59.8918 23.0875 60.0296 22.7985 60.4956 22.7139C60.7023 22.6802 60.8575 22.6628 60.9953 22.6628C61.2022 22.6628 61.3056 22.6291 61.3056 22.5101C61.3056 22.3908 61.185 22.3568 60.9436 22.3568C60.2712 22.3568 59.1851 22.4082 58.7713 22.4082C58.3058 22.4082 57.2195 22.3568 56.2887 22.3568C56.0473 22.3568 55.9268 22.3908 55.9268 22.5101C55.9268 22.6291 56.0299 22.6628 56.2198 22.6628C56.4609 22.6628 56.754 22.6802 56.8922 22.7139C57.4609 22.8322 57.5991 23.1042 57.6333 23.6822C57.668 24.2257 57.668 24.7011 57.668 27.2834V30.273C57.668 31.8354 57.668 33.1774 57.5817 33.8907C57.5128 34.3835 57.4264 34.7573 57.0817 34.8254C56.9264 34.8594 56.7195 34.8931 56.4609 34.8931C56.2542 34.8931 56.1854 34.9442 56.1854 35.0288C56.1854 35.1476 56.3059 35.199 56.5301 35.199C57.2195 35.199 58.3058 35.1476 58.7024 35.1476C59.1851 35.1476 60.2712 35.199 61.3919 35.199C61.5989 35.199 61.7366 35.1476 61.7366 35.0288C61.7366 34.9442 61.6505 34.8931 61.4611 34.8931C61.2022 34.8931 60.8228 34.8594 60.5814 34.8254C60.0643 34.7573 59.9607 34.3835 59.9093 33.9081C59.8229 33.1774 59.8229 31.8354 59.8229 30.273V28.7782C59.8229 28.6931 59.8748 28.6764 59.9265 28.6764H66.5124C66.5638 28.6764 66.6157 28.7101 66.6157 28.7782V30.273C66.6157 31.8354 66.6157 33.1774 66.5294 33.8907C66.4602 34.3835 66.3746 34.7573 66.0296 34.8254C65.8744 34.8594 65.6677 34.8931 65.4091 34.8931C65.2019 34.8931 65.1331 34.9442 65.1331 35.0288C65.1331 35.1476 65.2539 35.199 65.495 35.199C66.1674 35.199 67.2535 35.1476 67.6501 35.1476C68.1328 35.1476 69.2189 35.199 70.3394 35.199C70.5463 35.199 70.6843 35.1476 70.6843 35.0288C70.6843 34.9442 70.5982 34.8931 70.4085 34.8931C70.1499 34.8931 69.7705 34.8594 69.5294 34.8254C69.0122 34.7573 68.9086 34.3835 68.857 33.9081C68.7708 33.1774 68.7708 31.8354 68.7708 30.273V27.2834C68.7708 24.7011 68.7708 24.2257 68.805 23.6822C68.8397 23.0875 68.9778 22.7985 69.443 22.7139C69.65 22.6802 69.805 22.6628 69.9432 22.6628C70.1499 22.6628 70.2533 22.6291 70.2533 22.5101C70.2533 22.3908 70.1327 22.3568 69.8916 22.3568C69.2189 22.3568 68.1328 22.4082 67.719 22.4082C67.2535 22.4082 66.1674 22.3568 65.2364 22.3568C64.9953 22.3568 64.8742 22.3908 64.8742 22.5101C64.8742 22.6291 64.9778 22.6628 65.1675 22.6628C65.4091 22.6628 65.7019 22.6802 65.8399 22.7139C66.4088 22.8322 66.5468 23.1042 66.5813 23.6822C66.6157 24.2257 66.6157 24.7011 66.6157 27.2834V27.64C66.6157 27.7248 66.5638 27.7588 66.5124 27.7588H59.9265Z" fill="#000000"/>
<path fill-rule="evenodd" clip-rule="evenodd" d="M74.4229 30.273C74.4229 31.8354 74.4229 33.1775 74.3365 33.8907C74.2679 34.3835 74.1815 34.7573 73.8363 34.8255C73.6813 34.8594 73.4746 34.8931 73.2158 34.8931C73.0089 34.8931 72.94 34.9443 72.94 35.0289C72.94 35.1476 73.0608 35.199 73.2852 35.199C73.9746 35.199 75.0604 35.1476 75.4575 35.1476C76.4744 35.1476 77.6299 35.2497 80.2323 35.2497C80.8875 35.2497 81.0433 35.2497 81.1641 34.808C81.2494 34.4684 81.3877 33.3132 81.3877 32.9229C81.3877 32.753 81.3877 32.6172 81.2495 32.6172C81.1289 32.6172 81.0942 32.6849 81.0602 32.8718C80.9394 33.5685 80.7328 33.9249 80.2845 34.1287C79.8364 34.3326 79.1125 34.3326 78.664 34.3326C76.905 34.3326 76.6294 34.0776 76.595 32.9055C76.5775 32.4133 76.595 30.8504 76.595 30.273V28.9309C76.595 28.8289 76.6127 28.7607 76.6981 28.7607C77.1129 28.7607 78.8193 28.7782 79.147 28.8121C79.7842 28.8798 80.0256 29.135 80.112 29.4744C80.1639 29.6953 80.1639 29.9159 80.1814 30.0861C80.1814 30.1712 80.2158 30.2388 80.3364 30.2388C80.4914 30.2388 80.4914 30.0516 80.4914 29.9159C80.4914 29.7971 80.5258 29.1178 80.56 28.7782C80.6117 27.912 80.6983 27.64 80.6983 27.5379C80.6983 27.4361 80.6464 27.4022 80.5777 27.4022C80.4914 27.4022 80.4227 27.4868 80.3022 27.623C80.1462 27.7927 79.8883 27.8439 79.4742 27.8776C79.0783 27.912 77.095 27.912 76.7156 27.912C76.6127 27.912 76.595 27.8439 76.595 27.7249V23.4272C76.595 23.3081 76.6294 23.2575 76.7156 23.2575C77.061 23.2575 78.8712 23.2914 79.1635 23.3251C80.0256 23.4272 80.1981 23.631 80.3189 23.9367C80.405 24.1406 80.4227 24.4296 80.4227 24.5484C80.4227 24.7011 80.4572 24.7862 80.5777 24.7862C80.6983 24.7862 80.7328 24.6841 80.7502 24.5993C80.7847 24.3956 80.8189 23.6478 80.8366 23.4783C80.8875 22.6965 80.9739 22.4931 80.9739 22.3738C80.9739 22.289 80.9572 22.2211 80.871 22.2211C80.7847 22.2211 80.6806 22.2725 80.5955 22.289C80.4572 22.3232 80.1814 22.3569 79.8539 22.3908C79.5261 22.4083 76.095 22.4083 75.5439 22.4083C75.0604 22.4083 73.9746 22.3569 73.0608 22.3569C72.8024 22.3569 72.6816 22.3908 72.6816 22.5101C72.6816 22.6291 72.785 22.6628 72.9742 22.6628C73.2158 22.6628 73.5088 22.6803 73.6471 22.7139C74.216 22.8323 74.3543 23.1045 74.3885 23.6822C74.4229 24.2257 74.4229 24.7011 74.4229 27.2834V30.273Z" fill="#000000"/>
<path fill-rule="evenodd" clip-rule="evenodd" d="M90.1927 30.7658C90.2789 30.7658 90.3308 30.7998 90.365 30.8839L91.7441 34.4853C91.8302 34.6897 91.7099 34.8419 91.5893 34.8764C91.4163 34.8929 91.3477 34.9275 91.3477 35.0289C91.3477 35.1479 91.5546 35.1479 91.8649 35.1651C93.2444 35.199 94.5027 35.199 95.1237 35.199C95.761 35.199 95.9167 35.1651 95.9167 35.0289C95.9167 34.9101 95.8304 34.8929 95.6921 34.8929C95.4854 34.8929 95.2266 34.8764 94.9685 34.8255C94.6056 34.7406 94.1063 34.5028 93.4516 32.9736C92.3484 30.392 89.5897 23.4609 89.1756 22.527C89.0031 22.1362 88.9003 21.9835 88.744 21.9835C88.5713 21.9835 88.4685 22.1699 88.2615 22.6628L83.9348 33.3307C83.5896 34.1796 83.2621 34.7573 82.4686 34.8594C82.3316 34.8764 82.09 34.8929 81.9342 34.8929C81.7972 34.8929 81.7275 34.9275 81.7275 35.0289C81.7275 35.1651 81.8311 35.199 82.055 35.199C82.9521 35.199 83.8996 35.1479 84.0896 35.1479C84.6242 35.1479 85.3658 35.199 85.917 35.199C86.1069 35.199 86.21 35.1651 86.21 35.0289C86.21 34.9275 86.1578 34.8929 85.9512 34.8929H85.6933C85.1589 34.8929 85.0036 34.6725 85.0036 34.3665C85.0036 34.1627 85.0893 33.7549 85.2617 33.3307L86.1933 30.9016C86.2277 30.7998 86.2619 30.7658 86.3485 30.7658H90.1927ZM86.6925 29.9159C86.6239 29.9159 86.6064 29.8652 86.6239 29.7971L88.2096 25.6187C88.2273 25.5506 88.2615 25.4655 88.3135 25.4655C88.3654 25.4655 88.3821 25.5506 88.4001 25.6187L89.9511 29.8141C89.9691 29.8652 89.9511 29.9159 89.8653 29.9159H86.6925Z" fill="#000000"/>
<path fill-rule="evenodd" clip-rule="evenodd" d="M100.226 27.2834C100.226 24.7011 100.226 24.2257 100.26 23.6822C100.295 23.0875 100.433 22.7985 100.898 22.7139C101.105 22.6802 101.381 22.6628 101.571 22.6628C101.777 22.6628 101.88 22.6288 101.88 22.5101C101.88 22.3908 101.761 22.3568 101.518 22.3568C100.847 22.3568 99.5877 22.4082 99.1736 22.4082C98.7088 22.4082 97.6222 22.3568 96.812 22.3568C96.5532 22.3568 96.4326 22.3908 96.4326 22.5101C96.4326 22.6288 96.5364 22.6628 96.7261 22.6628C96.9503 22.6628 97.1567 22.6802 97.2948 22.7139C97.8634 22.8322 98.0017 23.1042 98.0361 23.6822C98.0705 24.2257 98.0705 24.7011 98.0705 27.2834V30.273C98.0705 31.8354 98.0705 33.1774 97.9839 33.8907C97.9158 34.3835 97.8292 34.7573 97.4852 34.8254C97.329 34.8591 97.122 34.8931 96.8642 34.8931C96.6573 34.8931 96.5876 34.9442 96.5876 35.0288C96.5876 35.1476 96.7092 35.199 96.9328 35.199C97.6222 35.199 98.7088 35.1476 99.1052 35.1476C100.501 35.1476 101.639 35.2497 104.122 35.2497C105.019 35.2497 105.105 35.1653 105.208 34.7913C105.346 34.2984 105.467 33.0247 105.467 32.8378C105.467 32.6339 105.449 32.5493 105.329 32.5493C105.191 32.5493 105.157 32.6509 105.139 32.8036C105.105 33.1268 104.898 33.6022 104.691 33.823C104.259 34.2819 103.588 34.2984 102.674 34.2984C101.329 34.2984 100.881 34.1796 100.588 33.9248C100.226 33.6194 100.226 32.447 100.226 30.273V27.2834Z" fill="#000000"/>
<path fill-rule="evenodd" clip-rule="evenodd" d="M110.308 30.273C110.308 31.8354 110.308 33.1774 110.222 33.8907C110.17 34.3835 110.066 34.7573 109.722 34.8254C109.566 34.8594 109.359 34.8931 109.101 34.8931C108.895 34.8931 108.825 34.9442 108.825 35.0288C108.825 35.1476 108.946 35.199 109.17 35.199C109.86 35.199 110.946 35.1476 111.342 35.1476C111.825 35.1476 112.911 35.199 114.049 35.199C114.238 35.199 114.376 35.1476 114.376 35.0288C114.376 34.9442 114.29 34.8931 114.101 34.8931C113.842 34.8931 113.462 34.8594 113.221 34.8254C112.704 34.7573 112.6 34.3835 112.55 33.9081C112.463 33.1774 112.463 31.8354 112.463 30.273V23.3081L114.635 23.3595C116.169 23.3932 116.635 23.8686 116.669 24.3103L116.687 24.4972C116.704 24.7522 116.739 24.8373 116.876 24.8373C116.98 24.8373 117.015 24.735 117.031 24.5653C117.031 24.1236 117.083 22.9517 117.083 22.5947C117.083 22.3401 117.066 22.2381 116.946 22.2381C116.808 22.2381 116.394 22.4082 115.29 22.4082H108.463C107.894 22.4082 107.239 22.3738 106.739 22.3231C106.308 22.289 106.136 22.1193 105.997 22.1193C105.894 22.1193 105.843 22.2211 105.79 22.4419C105.756 22.5777 105.429 24.1236 105.429 24.3956C105.429 24.5823 105.463 24.6674 105.584 24.6674C105.688 24.6674 105.738 24.5993 105.774 24.4635C105.808 24.3275 105.894 24.1236 106.067 23.8686C106.325 23.4953 106.739 23.4102 107.739 23.3762L110.308 23.3081V30.273Z" fill="#000000"/>
<path fill-rule="evenodd" clip-rule="evenodd" d="M122.857 27.7588C122.806 27.7588 122.754 27.7248 122.754 27.64V27.2834C122.754 24.7011 122.754 24.2257 122.788 23.6822C122.822 23.0875 122.96 22.7985 123.425 22.7139C123.632 22.6802 123.788 22.6628 123.925 22.6628C124.132 22.6628 124.235 22.6291 124.235 22.5101C124.235 22.3908 124.115 22.3568 123.874 22.3568C123.202 22.3568 122.115 22.4082 121.701 22.4082C121.236 22.4082 120.15 22.3568 119.219 22.3568C118.978 22.3568 118.857 22.3908 118.857 22.5101C118.857 22.6291 118.96 22.6628 119.15 22.6628C119.392 22.6628 119.684 22.6802 119.822 22.7139C120.391 22.8322 120.53 23.1042 120.564 23.6822C120.598 24.2257 120.598 24.7011 120.598 27.2834V30.273C120.598 31.8354 120.598 33.1774 120.512 33.8907C120.443 34.3835 120.357 34.7573 120.012 34.8254C119.856 34.8594 119.65 34.8931 119.392 34.8931C119.185 34.8931 119.115 34.9442 119.115 35.0288C119.115 35.1476 119.237 35.199 119.46 35.199C120.15 35.199 121.236 35.1476 121.633 35.1476C122.115 35.1476 123.202 35.199 124.323 35.199C124.529 35.199 124.667 35.1476 124.667 35.0288C124.667 34.9442 124.581 34.8931 124.391 34.8931C124.132 34.8931 123.753 34.8594 123.512 34.8254C122.995 34.7573 122.891 34.3835 122.84 33.9081C122.754 33.1774 122.754 31.8354 122.754 30.273V28.7782C122.754 28.6931 122.806 28.6764 122.857 28.6764H129.443C129.494 28.6764 129.546 28.7101 129.546 28.7782V30.273C129.546 31.8354 129.546 33.1774 129.46 33.8907C129.391 34.3835 129.305 34.7573 128.96 34.8254C128.805 34.8594 128.598 34.8931 128.34 34.8931C128.133 34.8931 128.063 34.9442 128.063 35.0288C128.063 35.1476 128.184 35.199 128.425 35.199C129.098 35.199 130.184 35.1476 130.58 35.1476C131.063 35.1476 132.149 35.199 133.269 35.199C133.476 35.199 133.615 35.1476 133.615 35.0288C133.615 34.9442 133.528 34.8931 133.339 34.8931C133.08 34.8931 132.701 34.8594 132.459 34.8254C131.942 34.7573 131.839 34.3835 131.788 33.9081C131.701 33.1774 131.701 31.8354 131.701 30.273V27.2834C131.701 24.7011 131.701 24.2257 131.736 23.6822C131.77 23.0875 131.908 22.7985 132.373 22.7139C132.58 22.6802 132.735 22.6628 132.873 22.6628C133.08 22.6628 133.184 22.6291 133.184 22.5101C133.184 22.3908 133.062 22.3568 132.822 22.3568C132.149 22.3568 131.063 22.4082 130.649 22.4082C130.184 22.4082 129.098 22.3568 128.167 22.3568C127.926 22.3568 127.805 22.3908 127.805 22.5101C127.805 22.6291 127.908 22.6628 128.097 22.6628C128.34 22.6628 128.633 22.6802 128.77 22.7139C129.339 22.8322 129.477 23.1042 129.512 23.6822C129.546 24.2257 129.546 24.7011 129.546 27.2834V27.64C129.546 27.7248 129.494 27.7588 129.443 27.7588H122.857Z" fill="#000000"/>
<path fill-rule="evenodd" clip-rule="evenodd" d="M56.4744 54.936C56.438 55.1811 56.3792 55.4621 56.1745 55.5055C56.0647 55.5271 56.0136 55.5271 55.9553 55.5271C55.8819 55.5271 55.8379 55.5414 55.8379 55.5775C55.8379 55.6425 55.8965 55.6565 55.9695 55.6565C56.2038 55.6565 56.5549 55.6354 56.6939 55.6354C56.8253 55.6354 57.1545 55.6565 57.4618 55.6565C57.5715 55.6565 57.6372 55.6425 57.6372 55.5775C57.6372 55.5414 57.586 55.5271 57.5277 55.5271C57.4544 55.5271 57.3518 55.5198 57.2202 55.4907C57.0959 55.4621 57.001 55.3971 57.001 55.2604C57.001 55.145 57.0083 55.0517 57.0228 54.9217L57.4032 52.0534H57.4325C57.6884 52.594 58.1274 53.5016 58.1933 53.6534C58.2809 53.8548 58.8586 54.9581 59.0343 55.2893C59.1511 55.5055 59.2245 55.6495 59.2902 55.6495C59.3561 55.6495 59.3928 55.5845 59.5608 55.2459L61.1554 51.9741H61.1847L61.6234 55.145C61.6527 55.347 61.6308 55.4405 61.587 55.4551C61.5358 55.4764 61.5063 55.4982 61.5063 55.5343C61.5063 55.5775 61.5503 55.5991 61.7186 55.6134C62.0112 55.6354 63.0202 55.6565 63.2033 55.6565C63.3056 55.6565 63.3935 55.6354 63.3935 55.5775C63.3935 55.5343 63.342 55.5271 63.2763 55.5271C63.1814 55.5271 63.035 55.5198 62.8229 55.4551C62.6034 55.3896 62.5303 55.1811 62.4644 54.7271L61.7991 50.2737C61.7769 50.1225 61.7331 50.0505 61.6672 50.0505C61.6015 50.0505 61.5575 50.1077 61.5063 50.2228L59.517 54.338L57.5204 50.2737C57.4251 50.0859 57.3813 50.0505 57.3228 50.0505C57.2645 50.0505 57.2202 50.1149 57.1985 50.2371L56.4744 54.936Z" fill="#000000"/>
<path fill-rule="evenodd" clip-rule="evenodd" d="M66.8462 53.7758C66.8826 53.7758 66.9045 53.7903 66.9192 53.826L67.5043 55.3542C67.5408 55.4403 67.4896 55.5055 67.4381 55.5196C67.3653 55.5271 67.336 55.5414 67.336 55.5845C67.336 55.6354 67.4241 55.6354 67.5558 55.6425C68.1406 55.6565 68.6748 55.6565 68.938 55.6565C69.2087 55.6565 69.2744 55.6425 69.2744 55.5845C69.2744 55.5343 69.2377 55.5271 69.1794 55.5271C69.0913 55.5271 68.9818 55.5196 68.8721 55.4982C68.7186 55.4623 68.5065 55.3615 68.2284 54.7123C67.7605 53.6173 66.5903 50.6771 66.4146 50.2808C66.341 50.1149 66.2977 50.0505 66.2318 50.0505C66.1585 50.0505 66.1147 50.1295 66.0271 50.338L64.1911 54.864C64.0447 55.2243 63.9059 55.4694 63.5696 55.5125C63.5108 55.5196 63.4087 55.5271 63.3427 55.5271C63.2842 55.5271 63.2549 55.5414 63.2549 55.5845C63.2549 55.6425 63.2987 55.6565 63.3939 55.6565C63.7743 55.6565 64.1766 55.6354 64.257 55.6354C64.4836 55.6354 64.7981 55.6565 65.0321 55.6565C65.1125 55.6565 65.1566 55.6425 65.1566 55.5845C65.1566 55.5414 65.1347 55.5271 65.0468 55.5271H64.9371C64.7105 55.5271 64.6443 55.4335 64.6443 55.3036C64.6443 55.2168 64.6807 55.0442 64.7543 54.864L65.1494 53.8335C65.1639 53.7903 65.1785 53.7758 65.2151 53.7758H66.8462ZM65.3615 53.4153C65.3322 53.4153 65.3246 53.3937 65.3322 53.3651L66.0049 51.5923C66.0123 51.5637 66.0271 51.5273 66.0487 51.5273C66.0706 51.5273 66.0783 51.5637 66.0851 51.5923L66.7436 53.3724C66.7509 53.3937 66.7436 53.4153 66.7071 53.4153H65.3615Z" fill="#000000"/>
<path fill-rule="evenodd" clip-rule="evenodd" d="M70.6654 51.6499H70.6876C70.8192 51.7867 71.6302 52.6878 72.4269 53.4659C73.1872 54.208 74.1224 55.1522 74.5825 55.5845C74.6627 55.6638 74.751 55.743 74.8315 55.743C74.8972 55.743 74.9267 55.6783 74.9267 55.5198L75.0069 50.9726C75.0138 50.5687 75.0726 50.4175 75.2776 50.36C75.3649 50.3382 75.4237 50.3382 75.4963 50.3382C75.5846 50.3382 75.6287 50.3166 75.6287 50.2735C75.6287 50.216 75.5554 50.2087 75.4601 50.2087C75.1021 50.2087 74.8236 50.2301 74.7432 50.2301C74.5901 50.2301 74.239 50.2087 73.8596 50.2087C73.7496 50.2087 73.6697 50.216 73.6697 50.2735C73.6697 50.3166 73.6987 50.3382 73.7861 50.3382C73.8882 50.3382 74.0636 50.3382 74.1733 50.3818C74.349 50.4536 74.4147 50.5905 74.4216 51.0301L74.4952 54.2662H74.4578C74.3342 54.1505 73.3476 53.1127 72.8506 52.623C71.7837 51.5779 70.6728 50.4034 70.5843 50.3093C70.4593 50.1799 70.3931 50.0861 70.3121 50.0861C70.2386 50.0861 70.2164 50.1872 70.2164 50.3309L70.1505 54.5976C70.1436 55.224 70.1141 55.4332 69.9239 55.4909C69.8213 55.5198 69.6896 55.527 69.5949 55.527C69.5216 55.527 69.4775 55.5416 69.4775 55.5845C69.4775 55.6492 69.5435 55.6565 69.6387 55.6565C70.0188 55.6565 70.3638 55.6352 70.4302 55.6352C70.5695 55.6352 70.8628 55.6565 71.3379 55.6565C71.4402 55.6565 71.5062 55.6424 71.5062 55.5845C71.5035 55.5416 71.4594 55.527 71.3792 55.527C71.2619 55.527 71.1231 55.5198 70.9986 55.4764C70.8524 55.4259 70.7575 55.2386 70.7427 54.6769L70.6654 51.6499Z" fill="#000000"/>
<path fill-rule="evenodd" clip-rule="evenodd" d="M79.4731 53.7758C79.5093 53.7758 79.5319 53.7903 79.5467 53.826L80.131 55.3542C80.1684 55.4403 80.1165 55.5055 80.0654 55.5196C79.9928 55.5271 79.9635 55.5414 79.9635 55.5845C79.9635 55.6354 80.0506 55.6354 80.1832 55.6425C80.7676 55.6565 81.302 55.6565 81.565 55.6565C81.8357 55.6565 81.9014 55.6425 81.9014 55.5845C81.9014 55.5343 81.8649 55.5271 81.8061 55.5271C81.7188 55.5271 81.609 55.5196 81.4993 55.4982C81.3453 55.4623 81.1334 55.3615 80.8559 54.7123C80.3872 53.6173 79.2172 50.6771 79.0416 50.2808C78.968 50.1149 78.9249 50.0505 78.8592 50.0505C78.7857 50.0505 78.7414 50.1295 78.6543 50.338L76.8183 54.864C76.6721 55.2243 76.5331 55.4694 76.1965 55.5125C76.1377 55.5196 76.0359 55.5271 75.9702 55.5271C75.9111 55.5271 75.8818 55.5414 75.8818 55.5845C75.8818 55.6425 75.9256 55.6565 76.0211 55.6565C76.4015 55.6565 76.8035 55.6354 76.884 55.6354C77.1106 55.6354 77.4253 55.6565 77.6588 55.6565C77.7402 55.6565 77.7833 55.6425 77.7833 55.5845C77.7833 55.5414 77.7619 55.5271 77.6735 55.5271H77.5648C77.3372 55.5271 77.2715 55.4335 77.2715 55.3036C77.2715 55.2168 77.3077 55.0442 77.3812 54.864L77.7764 53.8335C77.7911 53.7903 77.8059 53.7758 77.8423 53.7758H79.4731ZM77.9882 53.4153C77.959 53.4153 77.9521 53.3937 77.959 53.3651L78.6316 51.5923C78.6395 51.5637 78.6543 51.5273 78.6759 51.5273C78.6973 51.5273 78.7052 51.5637 78.7121 51.5923L79.371 53.3724C79.3779 53.3937 79.371 53.4153 79.3339 53.4153H77.9882Z" fill="#000000"/>
<path fill-rule="evenodd" clip-rule="evenodd" d="M83.4589 53.567C83.4589 54.2298 83.4589 54.799 83.4222 55.1018C83.3999 55.311 83.3568 55.4693 83.2097 55.4981C83.1437 55.5124 83.0566 55.527 82.9469 55.527C82.8583 55.527 82.83 55.5488 82.83 55.5844C82.83 55.6353 82.8809 55.6564 82.9762 55.6564C83.2685 55.6564 83.7293 55.6353 83.8971 55.6353C84.1021 55.6353 84.5629 55.6564 85.0454 55.6564C85.1259 55.6564 85.1847 55.6353 85.1847 55.5844C85.1847 55.5488 85.1483 55.527 85.0683 55.527C84.9581 55.527 84.7974 55.5124 84.6943 55.4981C84.4758 55.4693 84.4318 55.311 84.4099 55.109C84.373 54.799 84.373 54.2298 84.373 53.567V50.6121L85.2946 50.6339C85.9457 50.6484 86.1428 50.8499 86.1575 51.0373L86.1647 51.1163C86.1721 51.2247 86.1871 51.261 86.2449 51.261C86.2892 51.261 86.3037 51.2176 86.3116 51.1454C86.3116 50.958 86.333 50.461 86.333 50.3093C86.333 50.2014 86.3251 50.158 86.2742 50.158C86.2166 50.158 86.0407 50.23 85.5722 50.23H82.676C82.4351 50.23 82.1566 50.2159 81.9445 50.1941C81.7619 50.1798 81.6886 50.1078 81.6296 50.1078C81.5865 50.1078 81.5641 50.1507 81.5427 50.2445C81.5277 50.3025 81.3887 50.958 81.3887 51.0734C81.3887 51.1527 81.4032 51.1885 81.4541 51.1885C81.4982 51.1885 81.521 51.1599 81.5346 51.102C81.5491 51.0443 81.5865 50.958 81.6591 50.8499C81.7691 50.6911 81.9445 50.6557 82.3692 50.6409L83.4589 50.6121V53.567Z" fill="#000000"/>
<path fill-rule="evenodd" clip-rule="evenodd" d="M87.6564 53.3505C87.6564 54.3956 87.9339 54.9289 88.3079 55.2603C88.8413 55.7362 89.5433 55.7575 89.9305 55.7575C90.4062 55.7575 90.9332 55.6783 91.4526 55.2385C92.0665 54.7197 92.1469 53.8693 92.1469 53.0693V52.2981C92.1469 51.2031 92.1469 51.0012 92.1617 50.7706C92.1765 50.5185 92.2355 50.3956 92.4323 50.36C92.5197 50.3454 92.564 50.3381 92.6444 50.3381C92.7325 50.3381 92.7766 50.3236 92.7766 50.2734C92.7766 50.2227 92.7246 50.2087 92.6225 50.2087C92.3374 50.2087 91.8765 50.23 91.7889 50.23C91.7811 50.23 91.3202 50.2087 90.9475 50.2087C90.8456 50.2087 90.7937 50.2227 90.7937 50.2734C90.7937 50.3236 90.8377 50.3381 90.9182 50.3381C90.9986 50.3381 91.1231 50.3454 91.1819 50.36C91.4233 50.4101 91.4811 50.5255 91.4956 50.7706C91.5104 51.0012 91.5104 51.2031 91.5104 52.2981V53.1992C91.5104 53.9413 91.489 54.5903 91.087 54.9864C90.7937 55.2749 90.3993 55.3757 90.0777 55.3757C89.8287 55.3757 89.4923 55.3466 89.1626 55.0802C88.8046 54.7917 88.5921 54.3524 88.5921 53.3076V52.2981C88.5921 51.2031 88.5921 51.0012 88.6068 50.7706C88.6213 50.5185 88.6801 50.3956 88.8772 50.36C88.9658 50.3454 89.0096 50.3381 89.0901 50.3381C89.1626 50.3381 89.2069 50.3236 89.2069 50.2734C89.2069 50.2227 89.1557 50.2087 89.046 50.2087C88.7823 50.2087 88.3221 50.23 88.1467 50.23C87.927 50.23 87.4662 50.2087 87.0789 50.2087C86.9689 50.2087 86.918 50.2227 86.918 50.2734C86.918 50.3236 86.961 50.3381 87.0415 50.3381C87.1443 50.3381 87.2691 50.3454 87.3269 50.36C87.568 50.4101 87.6268 50.5255 87.6418 50.7706C87.6563 51.0012 87.6564 51.2031 87.6564 52.2981V53.3505Z" fill="#000000"/>
<path fill-rule="evenodd" clip-rule="evenodd" d="M97.936 52.5001C97.9143 52.5001 97.8919 52.4858 97.8919 52.4499V52.2981C97.8919 51.2031 97.8919 51.0012 97.9062 50.7706C97.9212 50.5185 97.9798 50.3958 98.1774 50.36C98.2652 50.3457 98.3311 50.3381 98.3887 50.3381C98.4773 50.3381 98.5211 50.3238 98.5211 50.2737C98.5211 50.223 98.4701 50.2087 98.3673 50.2087C98.0819 50.2087 97.6208 50.2298 97.4454 50.2298C97.2485 50.2298 96.7877 50.2087 96.3921 50.2087C96.2902 50.2087 96.2393 50.223 96.2393 50.2737C96.2393 50.3238 96.2835 50.3381 96.364 50.3381C96.4659 50.3381 96.5904 50.3457 96.6482 50.36C96.8905 50.4101 96.9484 50.5258 96.9629 50.7706C96.9779 51.0012 96.9779 51.2031 96.9779 52.2981V53.567C96.9779 54.2298 96.9779 54.799 96.9415 55.102C96.9119 55.311 96.8758 55.4693 96.7294 55.4981C96.6629 55.5124 96.5756 55.5272 96.4659 55.5272C96.3785 55.5272 96.349 55.5488 96.349 55.5844C96.349 55.6351 96.3999 55.6567 96.4951 55.6567C96.7877 55.6567 97.2485 55.6351 97.4168 55.6351C97.6208 55.6351 98.0819 55.6567 98.5577 55.6567C98.6458 55.6567 98.7039 55.6351 98.7039 55.5844C98.7039 55.5488 98.6672 55.5272 98.5873 55.5272C98.4773 55.5272 98.3161 55.5124 98.2143 55.4981C97.9948 55.4693 97.9505 55.311 97.9288 55.109C97.8919 54.799 97.8919 54.2298 97.8919 53.567V52.9328C97.8919 52.8962 97.9143 52.8897 97.936 52.8897H100.73C100.751 52.8897 100.774 52.9035 100.774 52.9328V53.567C100.774 54.2298 100.774 54.799 100.736 55.102C100.708 55.311 100.672 55.4693 100.525 55.4981C100.459 55.5124 100.372 55.5272 100.262 55.5272C100.174 55.5272 100.145 55.5488 100.145 55.5844C100.145 55.6351 100.196 55.6567 100.298 55.6567C100.584 55.6567 101.045 55.6351 101.213 55.6351C101.418 55.6351 101.878 55.6567 102.354 55.6567C102.441 55.6567 102.5 55.6351 102.5 55.5844C102.5 55.5488 102.464 55.5272 102.384 55.5272C102.273 55.5272 102.112 55.5124 102.01 55.4981C101.791 55.4693 101.747 55.311 101.724 55.109C101.688 54.799 101.688 54.2298 101.688 53.567V52.2981C101.688 51.2031 101.688 51.0012 101.702 50.7706C101.717 50.5185 101.776 50.3958 101.973 50.36C102.06 50.3457 102.127 50.3381 102.185 50.3381C102.273 50.3381 102.317 50.3238 102.317 50.2737C102.317 50.223 102.265 50.2087 102.164 50.2087C101.878 50.2087 101.418 50.2298 101.242 50.2298C101.045 50.2298 100.584 50.2087 100.189 50.2087C100.087 50.2087 100.035 50.223 100.035 50.2737C100.035 50.3238 100.079 50.3381 100.159 50.3381C100.262 50.3381 100.387 50.3457 100.445 50.36C100.686 50.4101 100.745 50.5258 100.759 50.7706C100.774 51.0012 100.774 51.2031 100.774 52.2981V52.4499C100.774 52.4858 100.751 52.5001 100.73 52.5001H97.936Z" fill="#000000"/>
<path fill-rule="evenodd" clip-rule="evenodd" d="M106.302 53.7758C106.338 53.7758 106.36 53.7903 106.375 53.826L106.96 55.3542C106.997 55.4403 106.946 55.5055 106.894 55.5196C106.821 55.5271 106.792 55.5414 106.792 55.5845C106.792 55.6354 106.88 55.6354 107.011 55.6425C107.596 55.6565 108.13 55.6565 108.394 55.6565C108.665 55.6565 108.73 55.6425 108.73 55.5845C108.73 55.5343 108.694 55.5271 108.635 55.5271C108.547 55.5271 108.438 55.5196 108.328 55.4982C108.174 55.4623 107.963 55.3615 107.684 54.7123C107.216 53.6173 106.046 50.6771 105.871 50.2808C105.797 50.1149 105.753 50.0505 105.687 50.0505C105.615 50.0505 105.571 50.1295 105.482 50.338L103.646 54.864C103.5 55.2243 103.362 55.4694 103.025 55.5125C102.967 55.5196 102.864 55.5271 102.798 55.5271C102.74 55.5271 102.711 55.5414 102.711 55.5845C102.711 55.6425 102.755 55.6565 102.85 55.6565C103.23 55.6565 103.633 55.6354 103.713 55.6354C103.939 55.6354 104.254 55.6565 104.488 55.6565C104.568 55.6565 104.612 55.6425 104.612 55.5845C104.612 55.5414 104.591 55.5271 104.502 55.5271H104.393C104.166 55.5271 104.1 55.4335 104.1 55.3036C104.1 55.2168 104.137 55.0442 104.21 54.864L104.605 53.8335C104.62 53.7903 104.634 53.7758 104.671 53.7758H106.302ZM104.817 53.4153C104.788 53.4153 104.781 53.3937 104.788 53.3651L105.461 51.5923C105.469 51.5637 105.482 51.5273 105.505 51.5273C105.526 51.5273 105.534 51.5637 105.541 51.5923L106.199 53.3724C106.207 53.3937 106.199 53.4153 106.163 53.4153H104.817Z" fill="#000000"/>
<path fill-rule="evenodd" clip-rule="evenodd" d="M109.44 53.3505C109.44 54.3956 109.717 54.9289 110.09 55.2603C110.624 55.7362 111.326 55.7575 111.714 55.7575C112.189 55.7575 112.716 55.6783 113.235 55.2385C113.849 54.7197 113.93 53.8693 113.93 53.0693V52.2981C113.93 51.2031 113.93 51.0012 113.945 50.7706C113.96 50.5185 114.017 50.3956 114.216 50.36C114.303 50.3454 114.347 50.3381 114.427 50.3381C114.514 50.3381 114.559 50.3236 114.559 50.2734C114.559 50.2227 114.508 50.2087 114.406 50.2087C114.12 50.2087 113.659 50.23 113.571 50.23C113.564 50.23 113.103 50.2087 112.73 50.2087C112.628 50.2087 112.577 50.2227 112.577 50.2734C112.577 50.3236 112.621 50.3381 112.701 50.3381C112.782 50.3381 112.906 50.3454 112.964 50.36C113.205 50.4101 113.264 50.5255 113.279 50.7706C113.294 51.0012 113.294 51.2031 113.294 52.2981V53.1992C113.294 53.9413 113.272 54.5903 112.869 54.9864C112.577 55.2749 112.181 55.3757 111.86 55.3757C111.612 55.3757 111.275 55.3466 110.946 55.0802C110.587 54.7917 110.375 54.3524 110.375 53.3076V52.2981C110.375 51.2031 110.375 51.0012 110.39 50.7706C110.404 50.5185 110.463 50.3956 110.66 50.36C110.749 50.3454 110.792 50.3381 110.872 50.3381C110.946 50.3381 110.99 50.3236 110.99 50.2734C110.99 50.2227 110.939 50.2087 110.829 50.2087C110.565 50.2087 110.105 50.23 109.929 50.23C109.71 50.23 109.249 50.2087 108.861 50.2087C108.751 50.2087 108.7 50.2227 108.7 50.2734C108.7 50.3236 108.744 50.3381 108.824 50.3381C108.927 50.3381 109.051 50.3454 109.11 50.36C109.351 50.4101 109.41 50.5255 109.425 50.7706C109.44 51.0012 109.44 51.2031 109.44 52.2981V53.3505Z" fill="#000000"/>
<path fill-rule="evenodd" clip-rule="evenodd" d="M118.427 55.7576C120.284 55.7576 121.455 54.4531 121.455 52.8027C121.455 51.153 120.321 50.1077 118.5 50.1077C116.305 50.1077 115.479 51.7004 115.479 52.9329C115.479 54.208 116.327 55.7576 118.427 55.7576ZM118.733 55.3971C117.329 55.3971 116.489 54.208 116.489 52.7096C116.489 50.9149 117.447 50.4538 118.287 50.4538C119.487 50.4538 120.431 51.4553 120.431 53.0691C120.431 55.1523 119.245 55.3971 118.733 55.3971Z" fill="#000000"/>
<path fill-rule="evenodd" clip-rule="evenodd" d="M122.835 53.567C122.835 54.2298 122.835 54.799 122.798 55.1018C122.769 55.311 122.732 55.4693 122.586 55.4981C122.52 55.5124 122.432 55.527 122.323 55.527C122.235 55.527 122.205 55.5488 122.205 55.5844C122.205 55.6353 122.257 55.6564 122.353 55.6564C122.645 55.6564 123.106 55.6353 123.244 55.6353C123.354 55.6353 123.895 55.6564 124.32 55.6564C124.415 55.6564 124.466 55.6353 124.466 55.5844C124.466 55.5488 124.437 55.527 124.378 55.527C124.29 55.527 124.129 55.5124 124.02 55.4981C123.8 55.4693 123.756 55.311 123.734 55.1018C123.698 54.799 123.698 54.2298 123.698 53.5595V53.4584C123.698 53.4152 123.72 53.4012 123.756 53.4012L124.392 53.4152C124.444 53.4152 124.487 53.4225 124.525 53.4659C124.62 53.5743 124.956 54.0642 125.249 54.4603C125.658 55.0152 125.936 55.3541 126.251 55.5195C126.441 55.6206 126.623 55.6564 127.033 55.6564H127.728C127.816 55.6564 127.867 55.6424 127.867 55.5844C127.867 55.5488 127.838 55.527 127.779 55.527C127.721 55.527 127.655 55.5195 127.575 55.5054C127.465 55.4836 127.165 55.4332 126.755 55.0152C126.323 54.5684 125.819 53.927 125.168 53.1202C125.907 52.5289 126.133 52.0387 126.133 51.5059C126.133 51.0227 125.841 50.6557 125.636 50.5185C125.242 50.2518 124.751 50.2087 124.29 50.2087C124.064 50.2087 123.508 50.23 123.259 50.23C123.106 50.23 122.645 50.2087 122.257 50.2087C122.148 50.2087 122.097 50.2227 122.097 50.2734C122.097 50.3238 122.14 50.3379 122.22 50.3379C122.323 50.3379 122.447 50.3454 122.506 50.36C122.747 50.4101 122.806 50.5258 122.82 50.7706C122.835 51.0012 122.835 51.2031 122.835 52.2979V53.567ZM123.698 50.6768C123.698 50.6193 123.713 50.5903 123.764 50.576C123.837 50.5546 123.969 50.5473 124.151 50.5473C124.583 50.5473 125.27 50.8424 125.27 51.8659C125.27 52.4572 125.058 52.7886 124.839 52.9471C124.707 53.0409 124.612 53.0693 124.32 53.0693C124.136 53.0693 123.918 53.0482 123.764 52.9973C123.713 52.9762 123.698 52.9471 123.698 52.8678V50.6768Z" fill="#000000"/>
<path fill-rule="evenodd" clip-rule="evenodd" d="M131.009 53.7758C131.046 53.7758 131.068 53.7903 131.083 53.826L131.668 55.3542C131.705 55.4403 131.654 55.5055 131.601 55.5196C131.529 55.5271 131.5 55.5414 131.5 55.5845C131.5 55.6354 131.588 55.6354 131.719 55.6425C132.304 55.6565 132.838 55.6565 133.101 55.6565C133.372 55.6565 133.437 55.6425 133.437 55.5845C133.437 55.5343 133.401 55.5271 133.343 55.5271C133.255 55.5271 133.145 55.5196 133.035 55.4982C132.882 55.4623 132.67 55.3615 132.392 54.7123C131.924 53.6173 130.753 50.6771 130.578 50.2808C130.505 50.1149 130.461 50.0505 130.395 50.0505C130.322 50.0505 130.279 50.1295 130.19 50.338L128.354 54.864C128.209 55.2243 128.069 55.4694 127.732 55.5125C127.674 55.5196 127.572 55.5271 127.506 55.5271C127.448 55.5271 127.418 55.5414 127.418 55.5845C127.418 55.6425 127.462 55.6565 127.557 55.6565C127.937 55.6565 128.34 55.6354 128.42 55.6354C128.648 55.6354 128.961 55.6565 129.196 55.6565C129.276 55.6565 129.32 55.6425 129.32 55.5845C129.32 55.5414 129.298 55.5271 129.21 55.5271H129.101C128.874 55.5271 128.808 55.4335 128.808 55.3036C128.808 55.2168 128.845 55.0442 128.917 54.864L129.313 53.8335C129.327 53.7903 129.342 53.7758 129.378 53.7758H131.009ZM129.524 53.4153C129.496 53.4153 129.488 53.3937 129.496 53.3651L130.169 51.5923C130.176 51.5637 130.19 51.5273 130.212 51.5273C130.234 51.5273 130.241 51.5637 130.249 51.5923L130.907 53.3724C130.915 53.3937 130.907 53.4153 130.871 53.4153H129.524Z" fill="#000000"/>
<path fill-rule="evenodd" clip-rule="evenodd" d="M91.1955 48.5585C91.2723 48.5585 91.3052 48.5437 91.3161 48.5151L91.4034 48.2557C91.4261 48.2053 91.3926 48.1837 91.3161 48.1837H88.6829C88.6066 48.1837 88.5732 48.1978 88.5623 48.2487L88.4742 48.5083C88.4634 48.5437 88.4858 48.5585 88.5623 48.5585H91.1955Z" fill="#000000"/>
<path fill-rule="evenodd" clip-rule="evenodd" d="M6.44336 37.576L9.77088 37.5721C15.1349 26.0284 23.6899 22.1358 29.6966 22.167C35.8042 22.1995 38.0349 25.7457 38.0565 28.7915C38.0898 33.3954 33.6164 35.2618 33.6164 35.2618C33.6164 35.2618 34.3346 35.0041 34.3026 33.2056C34.2679 31.2684 32.8979 30.4999 30.6149 30.4987C28.4888 30.4977 25.7188 32.1653 25.7503 34.6502C25.7796 36.9993 27.3144 38.7365 30.7113 38.7355C37.1098 38.7345 45.1427 34.329 45.1206 27.7554C45.1008 21.8082 39.9171 17.7993 33.6445 17.5205C21.4526 16.9794 14.0248 26.2216 14.0248 26.2216C22.5042 10.1263 42.8237 0.428123 42.8237 0.428123H28.6655C28.6655 0.428123 11.3795 16.6082 6.44336 37.576Z" fill="#000000"/>
<path fill-rule="evenodd" clip-rule="evenodd" d="M0.246094 44.6969H139.737V0.42852H0.246094V44.6969Z" stroke="#000000" stroke-width="0.562771"/>
</g>
<defs>
<clipPath id="clip0">
<rect width="140" height="56" fill="white"/>
</clipPath>
</defs>
</svg>
